# xmcd
#
# Track frame offsets:
#   150
#   5527
#   26968
#   44119
#   57366
#   74654
#   93506
#   109819
#   126372
#   147486
#   175277
#   184111
#   194101
#   210454
#   228897
#   245465
#   262124
#   284707
#   301907
#   306410
#
# Disc length: 4293 seconds
#
# Revision: 0
# Processed by: cddbd v1.5.2PL0 Copyright (c) Steve Scherf et al.
# Submitted via: uFREEDB ActiveX Control 1.5
#
DISCID=4510c314
DTITLE=CESAR OLIVEIRA E ROGERIO MELO - O CAMPO AO VIVO
DYEAR=1900
DGENRE=Country
TTITLE0=ABERTURA: PARA QUEM TEM A ALMA
TTITLE1=GAUCHA
TTITLE2=O CAMPO
TTITLE3=ROSILHO MALEVA
TTITLE4=NO DESDOBRAR DAS AURORAS
TTITLE5=REGALO
TTITLE6=BAILE GAUCHO
TTITLE7=DE SAO MIGUEL A MERCEDES
TTITLE8=ESTAMPA DOMINGUEIRA
TTITLE9=CAVALINHO DE PAU
TTITLE10=RINCAO DOS MACIEL
TTITLE11=CHAKAY MANTA
TTITLE12=PRA O INDIO QUE GINETEIA
TTITLE13=QUANDO O VERSO VEM PRAS CASAS
TTITLE14=QUERENCIA
TTITLE15=ROMANCE MUSIQUEIRO
TTITLE16=ERGUENDO A PATRIA NOS TENTOS
TTITLE17=A UMA TROPILHA VEIACA
TTITLE18=PALETEADA
TTITLE19=TROPILHAAS E GINETES
EXTD=
EXTT0=
EXTT1=
EXTT2=
EXTT3=
EXTT4=
EXTT5=
EXTT6=
EXTT7=
EXTT8=
EXTT9=
EXTT10=
EXTT11=
EXTT12=
EXTT13=
EXTT14=
EXTT15=
EXTT16=
EXTT17=
EXTT18=
EXTT19=
PLAYORDER=
